<?xml version="1.0" encoding="utf-8"?>
<!-- Generator: Adobe Illustrator 17.1.0, SVG Export Plug-In . SVG Version: 6.00 Build 0)  -->
<!DOCTYPE svg PUBLIC "-//W3C//DTD SVG 1.1//EN" "http://www.w3.org/Graphics/SVG/1.1/DTD/svg11.dtd">
<svg version="1.1" id="Layer_1" xmlns="http://www.w3.org/2000/svg" xmlns:xlink="http://www.w3.org/1999/xlink" x="0px" y="0px"
	 viewBox="0 0 500 500" enable-background="new 0 0 500 500" xml:space="preserve">
<g>
	<path d="M367.1,213.5c20.5,3.9,34.9,12.5,43.4,25.9c8.4,13.4,12.6,34.6,12.6,63.5c0,57.3-17.2,104.3-51.7,140.8
		c-34.5,36.5-78.6,54.8-132.3,54.8c-21.2,0-41.7-3.8-61.6-11.4c-19.9-7.6-37-18.3-51.4-31.9c-16.4-15-28.7-30.9-36.9-47.6
		c-8.2-16.7-12.3-33.8-12.3-51.4c0-19.6,4.2-34.7,12.6-45.4c8.4-10.7,21.7-18,39.9-21.8c-3.4-8-5.9-14.7-7.5-20.1
		c-1.6-5.5-2.4-9.7-2.4-12.6c0-10.2,5.4-20.7,16.2-31.4c10.8-10.7,21-16,30.6-16c4.1,0,8.4,0.7,13,2.2c4.6,1.5,9.8,3.9,15.7,7.3
		c-17.5-49.6-30.3-87.9-38.2-114.9c-8-27-11.9-45.6-11.9-55.8c0-14.1,3.6-25.3,10.9-33.6c7.3-8.3,17.2-12.5,29.7-12.5
		c21.4,0,48.5,47.8,81.2,143.4c5.7,16.4,10,29,13,37.9c2.5-7.1,6-17.1,10.6-30c32.8-94.7,61-142,84.7-142c11.6,0,20.9,3.9,27.8,11.8
		c6.9,7.9,10.4,18.4,10.4,31.6c0,10-3.8,28.3-11.4,55C394.1,135.6,382.6,170.5,367.1,213.5z M122.7,352.8c3.2,3.9,7.6,9.6,13.3,17.1
		c15,20.7,28.9,31.1,41.6,31.1c4.3,0,8.2-1.4,11.6-4.1c3.4-2.7,5.1-5.6,5.1-8.5c0-3.4-2.3-9.1-6.8-17.1c-4.6-8-10.8-16.9-18.8-27
		c-9.1-11.6-16.7-20.1-22.7-25.4c-6-5.3-10.9-8-14.5-8c-8,0-15.3,4.3-22,12.8c-6.7,8.5-10.1,18.6-10.1,30.2c0,9.3,2.3,19.7,7,31.2
		c4.7,11.5,11.4,23,20.3,34.6c13.4,18,30.1,31.8,50,41.5c19.9,9.7,41.9,14.5,66.1,14.5c44.4,0,81.5-16.6,111.5-49.7
		c29.9-33.1,44.9-74.6,44.9-124.4c0-15.2-1.1-27.4-3.4-36.4c-2.3-9-6-15.5-11.3-19.6c-9.3-7.7-27.5-14.7-54.4-20.8
		c-27-6.1-55.1-9.2-84.5-9.2c-8.2,0-14,1.4-17.4,4.1c-3.4,2.7-5.1,7.4-5.1,14c0,15.5,8.6,26.7,25.9,33.6c17.3,6.9,45.3,10.4,84,10.4
		h14c3.2,0,5.7,1.2,7.7,3.6c1.9,2.4,3.2,6,3.9,10.8c-3.9,3.6-11.8,7.8-23.9,12.5c-12.1,4.7-21.3,9.3-27.7,13.8
		c-13.7,10-24.6,21.9-32.9,35.7c-8.3,13.8-12.5,26.8-12.5,39.1c0,7.5,1.8,16.6,5.3,27.1c3.5,10.6,5.3,17.1,5.3,19.6v2.4l-0.7,3.1
		c-10-0.7-17.9-6.5-23.7-17.6c-5.8-11-8.7-25.8-8.7-44.2v-3.1c-1.8,1.6-3.6,2.7-5.3,3.4c-1.7,0.7-3.6,1-5.6,1c-2,0-4-0.2-5.8-0.5
		c-1.8-0.3-3.9-0.9-6.1-1.5c0.7,2.5,1.2,5,1.5,7.3c0.3,2.4,0.5,4.3,0.5,5.6c0,8.4-3.3,15.7-9.9,21.7c-6.6,6-14.5,9-23.6,9
		c-14.3,0-28.9-7-43.7-21c-14.8-14-22.2-27.7-22.2-41.1c0-2.5,0.3-4.7,0.9-6.7C120.3,355.8,121.3,354.1,122.7,352.8z M225.1,360.9
		c3.9,0,7.4-1.8,10.6-5.3c3.2-3.5,4.8-7.3,4.8-11.4c0-4.3-3.1-14.4-9.4-30.2c-6.3-15.8-14.1-31.3-23.4-46.6
		c-6.8-11.4-13.5-20-20.1-25.8c-6.6-5.8-12.9-8.7-18.8-8.7c-4.8,0-10.1,3-15.9,9c-5.8,6-8.7,11.7-8.7,16.9c0,5.5,2.8,13.7,8.5,24.6
		c5.7,10.9,13.3,22.5,22.9,34.8c10,13.4,19.5,23.9,28.3,31.4C212.8,357.2,219.8,360.9,225.1,360.9z M258.5,196.1L221.7,89.6
		c-9.6-27.1-17-44.8-22.2-53.1c-5.2-8.3-10.9-12.5-17.1-12.5c-4.8,0-8.7,1.8-11.6,5.5c-3,3.6-4.4,8.5-4.4,14.7
		c0,10.5,4,28.7,11.9,54.6c8,25.9,19.9,60,35.8,102.1c1.4-2.5,3.3-4.3,5.8-5.3c2.5-1,5.9-1.5,10.2-1.5c1.4,0,4.1,0.1,8.2,0.3
		C242.5,194.6,249.2,195.2,258.5,196.1z M297.1,299.5c-9.8-0.5-19.1-1.5-27.8-3.1c-8.8-1.6-17.1-3.9-25.1-6.8
		c3.6,7.3,6.9,14.6,9.7,21.8c2.8,7.3,5.2,14.5,7,21.5c5.5-6.8,11.2-13,17.2-18.6C284.2,308.8,290.5,303.8,297.1,299.5z M342.5,207.7
		c15.2-41.4,27.1-75.6,35.7-102.6c8.5-27,12.8-43.5,12.8-49.7c0-6.6-1.4-11.7-4.3-15.4c-2.8-3.6-6.8-5.5-11.8-5.5
		c-6.4,0-12.9,5.3-19.5,15.9c-6.6,10.6-13.9,27.6-21.8,51l-34.1,98.7L342.5,207.7z"/>
</g>
</svg>
