<?xml version="1.0" encoding="utf-8"?>
<!-- Generator: Adobe Illustrator 19.0.0, SVG Export Plug-In . SVG Version: 6.00 Build 0)  -->
<svg version="1.1" id="Layer_1" xmlns="http://www.w3.org/2000/svg" xmlns:xlink="http://www.w3.org/1999/xlink" x="0px" y="0px"
	 viewBox="-55 147 500 500" style="enable-background:new -55 147 500 500;" xml:space="preserve">
<path d="M332.1,557.8c-17.9,0-33.8-2.7-48.4-8.6s-26.5-13.9-37.1-24.5c-10-10.6-17.9-23.9-23.2-38.5s-8-31.2-8-48.4
	c0-16.6,2.7-32.5,8.6-47.8c6-15.3,13.9-27.9,23.9-38.5c10.6-10.6,22.6-19.2,37.1-25.9c14.6-6,30.5-9.3,47.8-9.3
	c19.2,0,36.5,4,51.1,11.3s26.5,17.9,35.8,30.5s15.9,27.2,19.9,43.1s5.3,32.5,4,50.4l-0.7,6H287.6c1.3,12.6,6,24.5,12.6,31.2
	c8,7.3,19.2,11.3,33.8,11.3c10.6,0,19.9-2.7,27.2-8c7.3-5.3,11.9-10.6,13.3-15.9l1.3-4.6h65.7l-2.7,8.6c-8.6,27.2-22.6,47.8-41.1,59
	C379.8,551.8,357.9,557.8,332.1,557.8z M332.1,328.9c-15.9,0-29.9,2.7-42.5,8.6c-12.6,5.3-23.9,13.3-33.2,22.6
	c-9.3,9.3-15.9,20.6-21.2,34.5c-5.3,13.3-7.3,27.9-7.3,43.1c0,15.9,2.7,30.5,7.3,43.8c4.6,13.3,11.9,24.5,20.6,33.8
	c9.3,9.3,19.9,16.6,32.5,21.9c13.3,5.3,27.9,8,43.8,8c23.2,0,43.1-5.3,59-15.9c14.6-9.3,25.2-23.9,33.2-44.4h-39.1
	c-3.3,6.6-8.6,12.6-16.6,17.9c-10,6.6-21.2,10-34.5,10c-18.6,0-32.5-5.3-43.1-14.6c-10-10-16.6-27.9-16.6-46.4V445h155.9
	c0.7-13.9-1.3-27.2-4-40.5c-4-14.6-10-27.9-17.9-39.1s-18.6-20.6-31.2-26.5C364.6,332.2,349.3,328.9,332.1,328.9z M97.2,551.8H-54
	V240H93.3c14.6,0,27.9,1.3,40.5,4c11.9,2.7,23.2,7.3,32.5,13.3c9.3,6.6,16.6,14.6,21.9,25.2c4.6,10,7.3,23.2,7.3,37.8
	c0,16.6-4,30.5-11.3,41.1c-5.3,7.3-11.9,13.9-20.6,19.9c13.3,6,23.9,14.6,31.2,25.2c10,14.6,14.6,31.8,14.6,51.7
	c0,15.9-3.3,30.5-9.3,42.5c-6,11.9-14.6,21.9-25.9,29.2c-10.6,7.3-22.6,12.6-35.8,16.6C124.4,550.5,111.2,551.8,97.2,551.8z
	 M-41.4,539.2h138c12.6,0,25.2-1.3,37.1-4.6c11.9-3.3,22.6-8,31.8-14.6c9.3-6.6,16.6-14.6,21.9-24.5c5.3-10,8-22.6,8-36.5
	c0-17.9-4-32.5-12.6-44.4c-8-11.9-20.6-20.6-37.1-25.2l-15.9-4.6l15.3-7.3c12.6-6,21.9-13.3,27.9-22.6c6-8.6,9.3-20.6,9.3-33.8
	s-2-23.9-6-32.5c-4.6-8.6-10-15.9-17.9-20.6c-8-5.3-17.2-9.3-27.9-11.3c-11.3-2.7-23.9-4-37.8-4h-134V539.2z M88,500.7H11.7v-94.9
	h77.6c15.3,0,28.5,4,37.8,11.3c10,8,15.3,20.6,15.3,37.8c0,9.3-1.3,16.6-4.6,22.6c-3.3,6-7.3,10.6-12.6,14.6
	c-4.6,3.3-10.6,6-17.9,7.3C101.9,500.1,95.3,500.7,88,500.7z M24.3,488.1H88c6.6,0,11.9-0.7,17.2-2c5.3-1.3,10-2.7,13.3-5.3
	c4-2.7,6.6-6,8.6-10s3.3-9.3,3.3-16.6c0-13.3-3.3-22.6-10.6-27.9s-17.9-8.6-30.5-8.6h-65V488.1z M384.5,420.5H274.4l0.7-6.6
	c0-4.6,1.3-10,2.7-15.9c2-6,4.6-11.9,9.3-17.2s10-10,17.2-13.9c7.3-4,15.9-5.3,26.5-5.3c16.6,0,29.9,5.3,38.5,13.9
	c8.6,10,13.9,22.6,15.3,37.8L384.5,420.5z M288.3,407.9h82.3c-2-9.3-5.3-17.2-11.3-23.9c-6-6.6-15.9-10-28.5-10
	c-8.6,0-15.3,1.3-20.6,4c-5.3,2.7-10,6-13.3,10.6c-3.3,4-5.3,8.6-6.6,13.3C289.6,403.9,288.9,405.9,288.3,407.9z M84.6,373.4h-73
	v-82.3h67.7c6.6,0,12.6,0.7,17.9,1.3c6,1.3,11.3,3.3,16.6,6s9.3,7.3,12.6,12.6c3.3,5.3,4.6,12.6,4.6,20.6c0,14.6-4.6,25.9-13.9,32.5
	C108.5,370.7,97.2,373.4,84.6,373.4z M24.3,360.8h60.4c10.6,0,18.6-2.7,25.2-7.3c6-4,8.6-11.3,8.6-21.9c0-6-0.7-10.6-2.7-13.9
	c-2-3.3-4.6-6-8-8c-4-2-8-4-12.6-4.6c-4.6-0.7-10-1.3-15.9-1.3H24.3V360.8z M396.4,302.4h-134v-42.5h134V302.4z M275.7,289.8h108.1
	v-17.2H275.7V289.8z"/>
</svg>
