<?xml version="1.0" encoding="utf-8"?>
<!-- Generator: Adobe Illustrator 17.1.0, SVG Export Plug-In . SVG Version: 6.00 Build 0)  -->
<!DOCTYPE svg PUBLIC "-//W3C//DTD SVG 1.1//EN" "http://www.w3.org/Graphics/SVG/1.1/DTD/svg11.dtd">
<svg version="1.1" id="Layer_1" xmlns="http://www.w3.org/2000/svg" xmlns:xlink="http://www.w3.org/1999/xlink" x="0px" y="0px"
	 viewBox="0 0 500 500" enable-background="new 0 0 500 500" xml:space="preserve">
<path fill-rule="evenodd" clip-rule="evenodd" fill="#231F1C" d="M250,8.3C113.1,8.3,2.1,119.2,2.1,256.1
	c0,109.5,71,202.4,169.5,235.2c12.4,2.3,16.9-5.4,16.9-11.9c0-5.9-0.2-21.5-0.3-42.2c-68.9,15-83.5-33.2-83.5-33.2
	c-11.3-28.6-27.5-36.3-27.5-36.3c-22.5-15.4,1.7-15.1,1.7-15.1c24.9,1.8,38,25.5,38,25.5c22.1,37.9,58,26.9,72.1,20.6
	c2.3-16,8.7-26.9,15.7-33.1c-55-6.3-112.9-27.5-112.9-122.5c0-27.1,9.7-49.2,25.5-66.5c-2.5-6.3-11.1-31.5,2.4-65.6
	c0,0,20.8-6.7,68.2,25.4c19.8-5.5,41-8.2,62.1-8.3c21,0.1,42.3,2.8,62.1,8.3c47.3-32.1,68.1-25.4,68.1-25.4
	c13.5,34.1,5,59.3,2.5,65.6c15.9,17.3,25.5,39.5,25.5,66.5c0,95.2-58,116.2-113.2,122.3c8.9,7.7,16.8,22.8,16.8,45.9
	c0,33.1-0.3,59.9-0.3,68c0,6.6,4.5,14.3,17,11.9c98.4-32.8,169.4-125.7,169.4-235.1C497.9,119.2,386.9,8.3,250,8.3z"/>
</svg>
