<?xml version="1.0" encoding="utf-8"?>
<!-- Generator: Adobe Illustrator 17.1.0, SVG Export Plug-In . SVG Version: 6.00 Build 0)  -->
<!DOCTYPE svg PUBLIC "-//W3C//DTD SVG 1.1//EN" "http://www.w3.org/Graphics/SVG/1.1/DTD/svg11.dtd">
<svg version="1.1" id="Layer_1" xmlns:ev="http://www.w3.org/2001/xml-events"
	 xmlns="http://www.w3.org/2000/svg" xmlns:xlink="http://www.w3.org/1999/xlink" x="0px" y="0px" viewBox="389 1870.3 70 43.4"
	 enable-background="new 389 1870.3 70 43.4" xml:space="preserve">
<g>
	<rect x="393.4" y="1892" width="2.2" height="21.7"/>
	<rect x="397.7" y="1887.7" width="2.2" height="26"/>
	<path d="M448.8,1889.1c-1.4,0-2.7,0.3-3.9,1c-0.8-11.1-8.5-19.8-17.8-19.8c-2.3,0-4.5,0.5-6.5,1.5c-0.8,0.4-1,0.7-1,1.4v39
		c0,0.8,0.5,1.4,1.1,1.5c0,0,28,0,28.2,0c5.6,0,10.2-5.5,10.2-12.3C459,1894.6,454.4,1889.1,448.8,1889.1z M448.8,1911.5
		c-0.2,0-22,0-27.1,0l0-37.9c1.7-0.7,3.5-1.1,5.3-1.1c8.1,0,15,7.8,15.7,17.8c0.1,0.7,0.5,1.4,1.1,1.7c0.3,0.2,0.7,0.3,1.1,0.3
		c0.3,0,0.7-0.1,1-0.2c0.9-0.5,1.9-0.7,2.9-0.7c4.4,0,8,4.5,8,10.1C456.8,1907,453.2,1911.5,448.8,1911.5z"/>
	<rect x="389" y="1894.2" width="2.2" height="17.4"/>
	<rect x="402.1" y="1887.7" width="2.2" height="26"/>
	<rect x="415.2" y="1872.5" width="2.2" height="41.2"/>
	<rect x="406.5" y="1876.8" width="2.2" height="36.9"/>
	<rect x="410.9" y="1876.8" width="2.2" height="36.9"/>
</g>
</svg>
