<?xml version="1.0" encoding="utf-8"?>
<!-- Generator: Adobe Illustrator 19.0.0, SVG Export Plug-In . SVG Version: 6.00 Build 0)  -->
<svg version="1.1" id="Layer_1" xmlns="http://www.w3.org/2000/svg" xmlns:xlink="http://www.w3.org/1999/xlink" x="0px" y="0px"
	 viewBox="-55 147 500 500" style="enable-background:new -55 147 500 500;" xml:space="preserve">
<style type="text/css">
	.st0{fill:#blue;}
</style>
<path class="st0" d="M332.5,164c27.2,0,48.9,23.3,48.9,51.3v10.9H8.6v-10.9c0-28,21.7-51.3,48.2-51.3H332.5 M381.4,272.7v62.1H8.6
	v-62.1H381.4 M381.4,381.5v62.1H8.6v-62.1H381.4 M381.4,490.2v7.8c0,30.3-21,54.4-46.6,54.4h-23.3h-6.2l-4.7,3.9l-59.8,54.4v-42.7
	v-15.5h-15.5H55.2c-25.6,0-46.6-24.1-46.6-54.4v-7.8H381.4 M332.5,148.5H56.8c-35,0-63.7,30.3-63.7,66.8v26.4h403.9v-26.4
	C396.9,178.8,368.2,148.5,332.5,148.5L332.5,148.5z M396.9,257.2H-6.9v93.2h403.9V257.2L396.9,257.2z M396.9,365.9H-6.9v93.2h403.9
	V365.9L396.9,365.9z M396.9,474.7H-6.9V498c0,37.3,26.4,69.9,62.1,69.9h170.9v77.7l85.4-77.7h23.3c35.7,0,62.1-32.6,62.1-69.9V474.7
	L396.9,474.7z"/>
</svg>
