<?xml version="1.0" encoding="utf-8"?>
<!-- Generator: Adobe Illustrator 19.1.0, SVG Export Plug-In . SVG Version: 6.00 Build 0)  -->
<svg version="1.1" id="Layer_1" xmlns="http://www.w3.org/2000/svg" xmlns:xlink="http://www.w3.org/1999/xlink" x="0px" y="0px"
	 viewBox="-55 147 500 500" style="enable-background:new -55 147 500 500;" xml:space="preserve">
<style type="text/css">
	.st0{fill:#00ACED;}
</style>
<path class="st0" d="M443.1,239.8c-18.3,8.1-37.9,13.6-58.5,16c21-12.6,37.2-32.5,44.8-56.3c-19.7,11.7-41.5,20.1-64.6,24.7
	c-18.6-19.8-45-32.1-74.3-32.1c-56.2,0-101.8,45.6-101.8,101.8c0,8,0.9,15.7,2.6,23.2c-84.6-4.2-159.6-44.8-209.8-106.4
	c-8.8,15-13.8,32.5-13.8,51.2c0,35.3,18,66.5,45.3,84.7c-16.7-0.5-32.4-5.1-46.1-12.7c0,0.4,0,0.8,0,1.3c0,49.3,35.1,90.5,81.7,99.8
	c-8.5,2.3-17.5,3.6-26.8,3.6c-6.6,0-12.9-0.6-19.2-1.8c13,40.4,50.6,69.9,95.1,70.7C62.8,534.7,18.9,551-28.8,551
	c-8.2,0-16.3-0.5-24.3-1.4c45.1,28.9,98.6,45.7,156.1,45.7c187.3,0,289.7-155.1,289.7-289.7c0-4.4-0.1-8.8-0.3-13.2
	C412.2,278.2,429.5,260.2,443.1,239.8"/>
</svg>
