<?xml version="1.0" encoding="utf-8"?>
<!-- Generator: Adobe Illustrator 19.0.0, SVG Export Plug-In . SVG Version: 6.00 Build 0)  -->
<svg version="1.1" id="Layer_1" xmlns="http://www.w3.org/2000/svg" xmlns:xlink="http://www.w3.org/1999/xlink" x="0px" y="0px"
	 viewBox="-55 147 500 500" style="enable-background:new -55 147 500 500;" xml:space="preserve">
<g>
	<path d="M281.7,383.7l-137.8-90.8c-3.2-1.9-6.4-2.5-8.9-2.5c-7.6,0-14.6,6.4-14.6,15.9v26.7l0,0v144.8l0,0v10.8
		c0,9.5,7,15.9,14.6,15.9c3.2,0,6.4-0.6,9.5-2.5l137.2-92.7C291.9,401.4,292.5,390,281.7,383.7z M275.3,399.5l-137.2,92.7
		c-1.3,0.6-2.5,1.3-3.8,1.3c-2.5,0-3.8-1.9-3.8-5.1l0,0l0,0v-10.8V332.9v-10.8v-16.5c0-3.2,1.3-5.1,4.4-5.1c1.3,0,2.5,0.6,3.2,1.3
		L276,392.6c1.9,1.3,3.2,2.5,3.2,3.2C278.5,396.4,277.9,397.6,275.3,399.5z"/>
	<path d="M356.6,225.5H33.4c-47.6,0-86.4,38.1-86.4,85.7v171.5c0,47.6,38.7,85.7,86.4,85.7h323.3c47.6,0,86.4-38.1,86.4-85.7V311.3
		C443,263.6,404.3,225.5,356.6,225.5z M432.2,482.7c0,41.3-33.7,74.9-75.6,74.9H33.4c-41.9,0-75.6-33.7-75.6-74.9V311.3
		c0-41.3,33.7-74.9,75.6-74.9h323.3c41.9,0,75.6,33.7,75.6,74.9V482.7z"/>
</g>
</svg>
